<?xml version="1.0" encoding="utf-8"?>
<!-- Generator: Adobe Illustrator 28.2.0, SVG Export Plug-In . SVG Version: 6.00 Build 0)  -->
<svg version="1.0" id="katman_1" xmlns="http://www.w3.org/2000/svg" xmlns:xlink="http://www.w3.org/1999/xlink" x="0px" y="0px"
	 viewBox="0 0 1190.6 841.9" style="enable-background:new 0 0 1190.6 841.9;" xml:space="preserve">
<style type="text/css">
	.st0{fill:#010202;}
</style>
<path class="st0" d="M122.9,519.5c2-9.6,4-18.9,5.8-27.8c1.5-7.5,3.3-15.7,5.2-24.8l1.2-5.5l9.5-45.7h36.2l6.4-30.3h-37.9
	c0.3-1.3,0.7-3.3,1.2-6c0.5-2.6,1-4.9,1.3-6.7c1.4-6.9,4-12.1,7.7-15.5c3.7-3.5,8.8-5.2,15.4-5.2c3.7,0,7.4,0.4,11,1.3
	c3.6,0.9,7.1,2.2,10.3,3.8l9.5-32.3c-2.8-1.3-6.1-2.4-9.9-3.3c-3.8-0.9-7.7-1.7-11.8-2.2c-4.1-0.5-8.3-0.7-12.4-0.7
	c-6.5,0-12.8,0.8-18.8,2.4c-6,1.6-11.5,4.2-16.4,7.9c-4.9,3.7-9.2,8.8-12.9,15.1c-3.7,6.4-6.5,14.3-8.4,23.8c-1.2,6-2.6,12.5-4,19.6
	l0.4-2.1H89.4L83,415.5h22l-0.3,1.5c-0.6,2.8-1.2,5.6-1.7,8.3l-0.9,4.1c-1.4,6.8-2.7,12.9-3.8,18.5l-2.8,13.4
	c-2.3,11.1-4.4,21.2-6.3,30.2c-1.9,9-3.8,18.3-5.8,27.9H122.9z M235.6,385l-3.8,9.7l17.7,12.4c1,0.7,1.5,1.9,1.3,3.2l-0.1,0.4
	l-1.2,5.5c-0.3,1.4-1.3,2.4-2.6,2.4l-15.6,1l13.4,9.3c1,0.7,1.5,1.9,1.3,3.2l-0.1,0.4l-1.2,5.5c-0.3,1.4-1.3,2.4-2.6,2.4l-15.6,1.1
	l13.4,9.3c1,0.7,1.5,1.9,1.3,3.2l-0.1,0.4l-1.2,5.5c-0.3,1.4-1.3,2.4-2.6,2.4l-15.6,1.1l13.4,9.3c1,0.7,1.5,1.9,1.3,3.2l-0.1,0.4
	l-1.2,5.5c-0.3,1.4-1.3,2.4-2.6,2.4l-15.6,1.1l13.4,9.3c1,0.7,1.5,1.9,1.3,3.2l-0.1,0.4l-1.2,5.5c-0.3,1.4-1.3,2.4-2.6,2.4
	l-21.9,1.9l-2.7,11.7h-17.5l5.4-21.5c0.3-1.4,1.3-2.4,2.6-2.4l15.6-1.1l-13.4-9.3c-1-0.7-1.5-1.9-1.3-3.2l0.1-0.4l1.2-5.5
	c0.3-1.4,1.3-2.4,2.6-2.4l15.6-1.1l-13.4-9.3c-1-0.7-1.5-1.9-1.3-3.2l0.1-0.4l1.2-5.5c0.3-1.4,1.3-2.4,2.6-2.4l15.6-1.1l-13.4-9.3
	c-1-0.7-1.5-1.9-1.3-3.2l0.1-0.4l1.2-5.5c0.3-1.4,1.3-2.4,2.6-2.4l15.6-1.1l-13.4-9.3c-1-0.7-1.5-1.9-1.3-3.2l0.1-0.4l1.2-5.5
	c0.3-1.4,1.3-2.4,2.6-2.4l15.6-1.1l-13.4-9.3c-1-0.7-1.5-1.9-1.3-3.2l0.1-0.4l2.4-8.7C216.3,385.8,235.6,385,235.6,385z M249,319.8
	c7.2,0,12.5,2.4,15.9,7.3c3.5,4.9,4.5,10.7,3.1,17.5c-1.6,7.8-4.8,13.1-9.7,15.8c-4.9,2.7-11,4.1-18.2,4.1c-7.1,0-12.4-2.1-16-6.4
	c-3.6-4.3-4.6-10.3-3-18.2c1.5-7.2,4.7-12.3,9.7-15.5C235.8,321.4,241.8,319.8,249,319.8z M300.3,491.7c-1.9,9-3.8,18.2-5.7,27.8
	H255c2-9.6,4-18.9,5.8-27.9c1.9-9,4-19.1,6.4-30.2l15.4-74.5c2.4-10.9,4.7-21.7,6.9-32.4c2.2-10.7,4.4-21.4,6.6-32.1l40.2-3.5
	c-2.2,10.6-4.5,21.4-6.8,32.6c-2.3,11.2-4.8,22.9-7.3,35.3l-15.5,74.5C304.2,472.6,302.1,482.7,300.3,491.7z M404.7,381.7
	c12.7,0,23.2,2.2,31.4,6.5c8.2,4.3,13.9,10.4,17.1,18.4c3.2,7.9,3.6,17.4,1.2,28.3c-0.9,4.5-1.8,9-2.8,13.6c-1,4.6-2,9.4-3,14.5
	l-2.4,11.3c-1.4,6.7-2.9,13.8-4.4,21.2c-1.5,7.4-3.2,15.5-5.1,24.1h-34.2l1.7-17.9h-3c-3.3,4.8-6.9,8.7-10.8,11.8
	c-3.9,3.1-8.2,5.4-12.8,7c-4.6,1.6-9.5,2.4-14.8,2.4c-8.4,0-15.4-2.1-21.1-6.3c-5.6-4.2-9.6-9.7-11.8-16.6
	c-2.2-6.9-2.4-14.4-0.7-22.6c1.3-6.3,3.5-11.5,6.4-15.7c3-4.2,6.5-7.7,10.7-10.4c4.2-2.7,8.8-4.8,13.9-6.4
	c5.1-1.6,10.3-2.8,15.8-3.6l41.4-6.6c0.9-4,0.6-7.6-1-10.6c-1.5-3-4.3-5.3-8.3-7c-4-1.7-9-2.5-15.2-2.5c-3.2,0-6.6,0.2-10.1,0.7
	c-3.6,0.5-7.3,1.2-11.2,2.2c-3.9,0.9-7.9,2.1-12,3.5c-4.1,1.4-8.3,3-12.6,4.9l6.2-35.2c3.2-1.1,6.8-2.1,10.9-3.2
	c4.1-1,8.3-2,12.8-2.9c4.5-0.9,9.1-1.6,13.8-2.2C395.5,381.9,400.2,381.7,404.7,381.7z M412.6,452.8c-1.2,0.9-2.7,1.8-4.5,2.6
	c-1.8,0.9-4.2,1.7-7.3,2.6c-3.1,0.9-7.3,1.9-12.6,3c-3.4,0.8-6.6,1.7-9.4,2.8c-2.8,1.1-5.2,2.6-7,4.6c-1.9,2-3.1,4.5-3.7,7.7
	c-0.9,4.9,0,8.8,2.5,11.5c2.6,2.7,6,4.1,10.5,4.1c3.2,0,6.4-0.7,9.6-2.1c3.2-1.4,6.3-3.4,9.3-6c3-2.6,5.7-5.7,8.1-9.3
	C408.1,474.3,412.6,452.8,412.6,452.8z M605.1,405.6c-1.4-6.7-4.2-12.1-8.5-16.1c-5.5-5.2-13.2-7.8-23.1-7.8
	c-6.1,0-11.9,1.1-17.5,3.2c-5.6,2.2-10.8,5.1-15.5,8.8c-4.7,3.7-8.7,7.9-12,12.4h-3.3l2.8-22.9l-33.4,2c-2.3,11.2-4.5,22-6.8,32.5
	c-2.2,10.4-4.3,20.5-6.2,30.2l-2.8,13.4c-2.4,11.1-4.5,21.2-6.4,30.2c-1.9,9-3.8,18.3-5.8,27.9h39.6c1.9-9.6,3.8-18.8,5.7-27.7
	c1.9-8.9,3.8-18.3,6-28.4l5.7-27.8c2.8-3.3,5.7-6.3,8.5-8.9c2.9-2.6,5.9-4.7,9-6.2c3.1-1.5,6.5-2.3,10-2.3c6.2,0,10.1,2.4,11.8,7.3
	c1.7,4.9,1.7,11.4,0.1,19.4l-3.8,18.6c-2.1,10-4.1,19.5-5.8,28.2c-1.8,8.8-3.7,18-5.7,27.7h39.5c2-9.6,4-18.9,5.9-27.9
	c1.9-9,4-19.1,6.3-30.2c1.1-5.2,2.1-10.2,3.1-15.1c1-4.8,1.9-9.1,2.7-12.9l-0.2,0.9l0.3-0.3c1.9-2.1,3.8-4,5.7-5.8l1.5-1.3
	c2.9-2.6,5.9-4.7,9.1-6.3c3.1-1.6,6.5-2.4,10-2.4c6.2,0,10.1,2.4,11.8,7.3c1.7,4.9,1.7,11.4,0.1,19.4l-3.8,18.6
	c-2,10.1-4,19.6-5.8,28.3c-1.8,8.7-3.7,18-5.8,27.6h39.6c1.9-9.6,3.8-18.9,5.7-27.8c1.9-9,4-19,6.4-30.3c1.1-5.2,2.1-10.2,3.1-15.1
	c1-4.8,1.9-9.1,2.7-12.9c3.4-15.7,2.3-28.2-3.2-37.7c-5.5-9.4-15-14.1-28.5-14.1c-6.1,0-12,1.1-17.6,3.3c-5.6,2.2-10.9,5.2-15.7,8.9
	c-4.8,3.8-8.9,8-12.4,12.8h-2.9L605.1,405.6L605.1,405.6z M776.2,381.7c13.9,0,25.2,2.6,33.9,7.7c8.7,5.1,14.7,12.3,17.7,21.5
	c3.1,9.2,3.1,20,0.1,32.3c-0.7,3-1.4,5.7-2.2,8.3c-0.6,1.9-1.2,3.8-1.8,5.7l-0.6,1.8h-81.1l0,0.5c-0.2,5.1,0.6,9.6,2.2,13.4
	c2.5,5.7,6.7,10,12.5,12.8c5.8,2.8,13,4.2,21.4,4.2c3.7,0,7.8-0.3,12.4-1c4.5-0.7,9.1-1.7,13.6-3.1c4.5-1.4,8.6-3.2,12.4-5.3
	l-5.3,34.2c-2.4,1.4-5.6,2.8-9.8,4c-4.1,1.3-8.9,2.3-14.4,3.1c-5.4,0.8-11.3,1.2-17.5,1.2c-15.9,0-29.1-3.1-39.8-9.3
	c-10.6-6.2-18.1-15.1-22.5-26.6c-4.4-11.5-5-25.1-1.8-40.9c2.6-13,7.1-24.3,13.5-34c6.4-9.7,14.3-17.2,24-22.5
	C752.9,384.3,763.9,381.7,776.2,381.7z M777,410c-4.5,0-8.9,1.2-13.2,3.6c-4.3,2.4-8.1,6.2-11.5,11.3c-2,3.1-3.7,6.7-5.2,10.8
	l-0.4,1.2l47.8-1l0.2-1.2c0.7-5.9-0.2-11.2-2.6-15.9C789.2,413,784.2,410,777,410z M876.8,519.5c1.9-9.6,3.8-18.8,5.7-27.6
	c1.9-8.8,3.8-18.3,6-28.4l5.7-27.8c2.8-3.3,5.7-6.3,8.7-8.9c3-2.6,6-4.7,9.3-6.2c3.2-1.5,6.7-2.3,10.5-2.3c7,0,11.4,2.4,13.2,7.3
	c1.9,4.9,1.9,11.4,0.1,19.4l-3.8,18.6c-2,10-3.9,19.5-5.8,28.2c-1.8,8.8-3.7,18-5.8,27.7h39.6c2-9.6,4-18.9,5.9-27.9
	c1.9-9,4-19.1,6.2-30.2c1.1-5.2,2.2-10.2,3.2-15.1c1-4.8,1.9-9.1,2.7-12.9c3.3-15.7,2.1-28.2-3.4-37.7c-5.6-9.4-15.5-14.1-29.8-14.1
	c-6.3,0-12.3,1.1-18.1,3.2c-5.8,2.2-11.1,5.1-15.8,8.8c-4.8,3.7-8.8,7.9-12,12.4h-3.3l2.8-22.9l-33.4,2c-2.3,11.2-4.5,22.1-6.8,32.5
	c-2.2,10.5-4.3,20.5-6.2,30.1l-2.8,13.4c-2.3,11-4.4,21.1-6.3,30.1c-1.9,9.1-3.9,18.4-5.9,28L876.8,519.5L876.8,519.5z
	 M1051.9,523.1c3.2,0,6.6-0.3,10.3-0.9c3.7-0.6,7.2-1.3,10.4-2.3c3.2-0.9,5.8-2,7.6-3.3l4.2-32.9c-3.4,2.4-6.9,4.1-10.3,5.1
	c-3.4,1-6.5,1.5-9.3,1.5c-6.4,0-10.8-2.2-13.2-6.7s-2.6-11-0.7-19.6l10-48.4h39.4l6.4-30.3h-39.4l0.3-1.3c0.6-2.7,1.1-5.3,1.6-7.9
	l0.5-2.5c1.4-6.6,2.7-13,4-19.2c1.3-6.2,2.7-12.8,4.1-19.8l-40.5,7.1c-1.9,8.9-3.6,17.5-5.4,25.8c-1,5-2.2,10.3-3.4,16l-0.4,1.7
	h-21.4l-6.4,30.3h21.4l-0.2,0.8l-0.5,2.3c-1.4,6.9-2.8,13.4-4,19.5c-1.3,6.1-2.5,11.9-3.6,17.5c-1.2,5.6-2.3,11.3-3.6,17.1
	c-2.4,11.4-2.1,20.8,0.8,28.2c2.9,7.4,7.9,13,15,16.6C1033,521.3,1041.6,523.1,1051.9,523.1z"/>
</svg>
